<svg width="16" height="16" viewBox="0 0 16 16" fill="none" xmlns="http://www.w3.org/2000/svg">
<path d="M13 10H10V9H13V10ZM15 14H12V13H15V14ZM14 12H11V11H14V12Z" fill="#B0B0B0"/>
<path d="M8.50151 10C8.49774 9.57816 8.38511 9.16443 8.17453 8.79889C7.96395 8.43335 7.66255 8.12837 7.29951 7.9135L11 1.5L10.135 1L6.34651 7.563C5.88156 7.45918 5.398 7.47357 4.94004 7.60485C4.48208 7.73613 4.06434 7.98012 3.72501 8.3145C1.85301 10.12 1.99801 14.341 2.00501 14.52C2.01018 14.6491 2.06513 14.7712 2.15834 14.8607C2.25156 14.9502 2.37579 15.0001 2.50501 15H10.0005C10.1054 15 10.2077 14.967 10.2929 14.9056C10.378 14.8443 10.4417 14.7577 10.4749 14.6581C10.508 14.5586 10.5091 14.4511 10.4778 14.3509C10.4465 14.2507 10.3845 14.163 10.3005 14.1C8.53051 12.772 8.50151 10.027 8.50151 10ZM5.96501 8.4985C6.3652 8.5029 6.74828 8.66142 7.03456 8.94108C7.32083 9.22075 7.48826 9.60003 7.50201 10C7.50201 10.019 7.50301 10.104 7.51051 10.2345L4.56051 8.9225C4.75483 8.76226 4.97907 8.64226 5.22018 8.56947C5.4613 8.49668 5.71448 8.47256 5.96501 8.4985ZM7.72501 14C7.32535 13.5931 7.0706 13.066 7.00001 12.5H6.00001C6.03582 13.0321 6.20204 13.5473 6.48401 14H5.37251C5.1668 13.3511 5.04169 12.6794 5.00001 12H4.00001C4.03206 12.6774 4.14366 13.3487 4.33251 14H3.00001C3.01551 13.082 3.14501 11.054 3.90151 9.7235L7.66801 11.3985C7.84858 12.3383 8.23443 13.2266 8.79801 14H7.72501Z" fill="#B0B0B0"/>
</svg>
