<svg width="16" height="16" viewBox="0 0 16 16" fill="none" xmlns="http://www.w3.org/2000/svg">
<path d="M8.00012 0.57146C8.00012 0.4199 8.06033 0.274547 8.16749 0.167377C8.27465 0.0602072 8.41999 0 8.57154 0C9.54706 0 10.513 0.192156 11.4143 0.565498C12.3156 0.938839 13.1345 1.48605 13.8243 2.1759C14.5141 2.86574 15.0612 3.68471 15.4345 4.58604C15.8079 5.48736 16 6.4534 16 7.42899C16 7.58055 15.9398 7.7259 15.8326 7.83307C15.7255 7.94024 15.5801 8.00045 15.4286 8.00045H8.57154C8.41999 8.00045 8.27465 7.94024 8.16749 7.83307C8.06033 7.7259 8.00012 7.58055 8.00012 7.42899V0.57146ZM6.85729 2.88245C6.85729 2.80306 6.84076 2.72455 6.80874 2.65191C6.77672 2.57927 6.72992 2.5141 6.67132 2.46055C6.61272 2.407 6.54361 2.36625 6.46839 2.34089C6.39317 2.31553 6.31349 2.30613 6.23444 2.31327C4.93668 2.4316 3.69951 2.91731 2.66784 3.7135C1.63617 4.50969 0.852716 5.58339 0.409255 6.80884C-0.034206 8.03429 -0.119314 9.36075 0.1639 10.6328C0.447114 11.9049 1.08692 13.07 2.00838 13.9915C2.92984 14.913 4.09479 15.5529 5.36678 15.8361C6.63878 16.1193 7.96514 16.0342 9.1905 15.5907C10.4159 15.1472 11.4895 14.3637 12.2856 13.332C13.0818 12.3002 13.5674 11.063 13.6858 9.76512C13.6927 9.68624 13.6832 9.60678 13.6579 9.53177C13.6325 9.45676 13.5918 9.38784 13.5384 9.32938C13.485 9.27092 13.42 9.2242 13.3476 9.19218C13.2752 9.16016 13.1969 9.14354 13.1178 9.14337H6.85729V2.88245Z" fill="#B0B0B0"/>
</svg>
