<svg width="16" height="16" viewBox="0 0 16 16" fill="none" xmlns="http://www.w3.org/2000/svg">
<path d="M1.22863 7.0446L0.614315 7.66954L0 7.0446L0.614315 6.41966L1.22863 7.0446ZM16 14.1161C16 14.3505 15.9085 14.5753 15.7455 14.7411C15.5826 14.9069 15.3615 15 15.1311 15C14.9006 15 14.6796 14.9069 14.5167 14.7411C14.3537 14.5753 14.2622 14.3505 14.2622 14.1161H16ZM4.95884 12.0892L0.614315 7.66954L1.84295 6.41966L6.18747 10.8393L4.95884 12.0892ZM0.614315 6.41966L4.95884 2L6.18747 3.24988L1.84295 7.66954L0.614315 6.41966ZM1.22863 6.16067H9.91767V7.92854H1.22863V6.16067ZM16 12.3482V14.1161H14.2622V12.3482H16ZM9.91767 6.16067C11.5308 6.16067 13.0779 6.81257 14.2185 7.97296C15.3592 9.13334 16 10.7072 16 12.3482H14.2622C14.2622 11.176 13.8045 10.0519 12.9897 9.22303C12.175 8.39418 11.0699 7.92854 9.91767 7.92854V6.16067Z" fill="#B0B0B0"/>
</svg>
