<svg width="24" height="24" viewBox="0 0 24 24" fill="none" xmlns="http://www.w3.org/2000/svg">
<path d="M3.27539 17.7002L7.40039 6.7002H9.37539L13.5004 17.7002H11.6004L10.6254 14.9002H6.17539L5.17539 17.7002H3.27539ZM6.75039 13.3002H10.0254L8.42539 8.7502H8.32539L6.75039 13.3002ZM16.6254 17.9502C15.7754 17.9502 15.1004 17.7212 14.6004 17.2632C14.1004 16.8052 13.8504 16.2009 13.8504 15.4502C13.8504 14.7169 14.1381 14.1129 14.7134 13.6382C15.2887 13.1635 16.0261 12.9259 16.9254 12.9252C17.3087 12.9252 17.6837 12.9585 18.0504 13.0252C18.4171 13.0919 18.7337 13.1835 19.0004 13.3002V13.0002C19.0004 12.5169 18.8294 12.1252 18.4874 11.8252C18.1454 11.5252 17.6914 11.3752 17.1254 11.3752C16.7421 11.3752 16.3921 11.4545 16.0754 11.6132C15.7587 11.7719 15.4837 12.0009 15.2504 12.3002L14.0754 11.4252C14.4754 10.9419 14.9297 10.5835 15.4384 10.3502C15.9471 10.1169 16.5177 10.0002 17.1504 10.0002C18.3004 10.0002 19.1587 10.2712 19.7254 10.8132C20.2921 11.3552 20.5754 12.1675 20.5754 13.2502V17.7002H19.0004V16.7752H18.9004C18.6671 17.1585 18.3504 17.4502 17.9504 17.6502C17.5504 17.8502 17.1087 17.9502 16.6254 17.9502ZM16.9254 16.6002C17.5087 16.6002 18.0047 16.4002 18.4134 16.0002C18.8221 15.6002 19.0261 15.1335 19.0254 14.6002C18.7921 14.4669 18.5131 14.3629 18.1884 14.2882C17.8637 14.2135 17.5427 14.1759 17.2254 14.1752C16.6921 14.1752 16.2754 14.2919 15.9754 14.5252C15.6754 14.7585 15.5254 15.0669 15.5254 15.4502C15.5254 15.7835 15.6587 16.0585 15.9254 16.2752C16.1921 16.4919 16.5254 16.6002 16.9254 16.6002Z" fill="currentColor"/>
</svg>
