<svg width="16" height="16" viewBox="0 0 16 16" fill="none" xmlns="http://www.w3.org/2000/svg">
<g clip-path="url(#clip0_7082_685)">
<path fill-rule="evenodd" clip-rule="evenodd" d="M9.49995 1.00012C9.63256 1.00012 9.75974 1.0528 9.85351 1.14656C9.94728 1.24033 9.99995 1.36751 9.99995 1.50012V4.81012C10.1966 4.63412 10.416 4.48512 10.658 4.36312C12.648 3.36612 14.998 4.81612 14.998 7.04312V7.95312C14.998 10.1831 12.648 11.6331 10.658 10.6331C10.4198 10.514 10.1985 10.3637 9.99995 10.1861V10.4951C9.99995 10.6277 9.94728 10.7549 9.85351 10.8487C9.75974 10.9424 9.63256 10.9951 9.49995 10.9951C9.36735 10.9951 9.24017 10.9424 9.1464 10.8487C9.05263 10.7549 8.99995 10.6277 8.99995 10.4951V1.49512C8.99995 1.36251 9.05263 1.23533 9.1464 1.14156C9.24017 1.0478 9.36735 0.995117 9.49995 0.995117V1.00012ZM9.99995 7.95012V7.04012C9.99995 6.28212 10.428 5.59012 11.11 5.25012C12.44 4.58512 14 5.55212 14 7.04012V7.95012C14 9.44012 12.44 10.4001 11.11 9.74012C10.7767 9.57454 10.4963 9.31929 10.3002 9.00307C10.1041 8.68685 10.0002 8.3222 9.99995 7.95012ZM1.54995 5.28012C1.74167 4.89525 2.03701 4.57153 2.40271 4.3454C2.76842 4.11926 3.18998 3.99968 3.61995 4.00012H4.50195C4.83026 4.00012 5.15535 4.06478 5.45866 4.19042C5.76198 4.31605 6.03757 4.5002 6.26972 4.73235C6.50187 4.9645 6.68602 5.24009 6.81165 5.54341C6.93729 5.84672 7.00195 6.17181 7.00195 6.50012V10.5001C7.00195 10.6327 6.94928 10.7599 6.85551 10.8537C6.76174 10.9474 6.63456 11.0001 6.50195 11.0001C6.36934 11.0001 6.24217 10.9474 6.1484 10.8537C6.05463 10.7599 6.00195 10.6327 6.00195 10.5001C5.58395 10.8141 5.06495 11.0001 4.50195 11.0001H3.00195C1.90195 11.0001 1.00195 10.1051 1.00195 9.00012C1.00195 7.90012 1.89695 7.00012 3.00195 7.00012H6.00195V6.50012C6.00195 6.10229 5.84392 5.72076 5.56261 5.43946C5.28131 5.15815 4.89978 5.00012 4.50195 5.00012H3.61995C3.12395 5.00012 2.67095 5.28012 2.44995 5.72412C2.4206 5.78288 2.37996 5.83529 2.33036 5.87836C2.28075 5.92142 2.22315 5.95429 2.16085 5.97509C2.09854 5.99589 2.03274 6.00421 1.96722 5.99958C1.90169 5.99496 1.83772 5.97747 1.77895 5.94812C1.72019 5.91877 1.66778 5.87813 1.62472 5.82852C1.58165 5.77892 1.54878 5.72132 1.52798 5.65901C1.50718 5.5967 1.49886 5.53091 1.50349 5.46538C1.50811 5.39986 1.5256 5.33588 1.55495 5.27712L1.54995 5.28012ZM2.99995 8.00012C2.73474 8.00012 2.48038 8.10547 2.29285 8.29301C2.10531 8.48055 1.99995 8.7349 1.99995 9.00012C1.99995 9.26533 2.10531 9.51969 2.29285 9.70722C2.48038 9.89476 2.73474 10.0001 2.99995 10.0001H4.49995C4.89778 10.0001 5.27931 9.84208 5.56061 9.56078C5.84192 9.27947 5.99995 8.89794 5.99995 8.50012V8.00012H2.99995Z" fill="#B0B0B0"/>
<path d="M1 12.5C1 12.3674 0.947322 12.2402 0.853553 12.1464C0.759785 12.0527 0.632608 12 0.5 12C0.367392 12 0.240215 12.0527 0.146447 12.1464C0.0526784 12.2402 0 12.3674 0 12.5L0 14.5C0 14.8978 0.158035 15.2794 0.43934 15.5607C0.720644 15.842 1.10218 16 1.5 16H14.5C14.8978 16 15.2794 15.842 15.5607 15.5607C15.842 15.2794 16 14.8978 16 14.5V12.5C16 12.3674 15.9473 12.2402 15.8536 12.1464C15.7598 12.0527 15.6326 12 15.5 12C15.3674 12 15.2402 12.0527 15.1464 12.1464C15.0527 12.2402 15 12.3674 15 12.5V14.5C15 14.6326 14.9473 14.7598 14.8536 14.8536C14.7598 14.9473 14.6326 15 14.5 15H1.5C1.36739 15 1.24021 14.9473 1.14645 14.8536C1.05268 14.7598 1 14.6326 1 14.5V12.5Z" fill="#B0B0B0"/>
</g>
<defs>
<clipPath id="clip0_7082_685">
<rect width="16" height="16" fill="white"/>
</clipPath>
</defs>
</svg>
