<svg width="16" height="16" viewBox="0 0 16 16" fill="none" xmlns="http://www.w3.org/2000/svg">
<path fill-rule="evenodd" clip-rule="evenodd" d="M4.02577 3.342C4.16177 2.934 4.83777 2.934 4.97377 3.342L6.97377 9.342L6.97777 9.355L7.97377 12.343C8.00482 12.4656 7.98835 12.5954 7.92765 12.7064C7.86695 12.8174 7.76653 12.9013 7.64653 12.9413C7.52654 12.9813 7.39585 12.9744 7.28071 12.9221C7.16557 12.8697 7.07449 12.7757 7.02577 12.659L6.13977 10.001H2.85977L1.97377 12.659C1.9253 12.7762 1.83416 12.8707 1.71873 12.9234C1.60331 12.9761 1.47221 12.983 1.35189 12.9427C1.23156 12.9025 1.13099 12.8181 1.07046 12.7066C1.00993 12.5951 0.99396 12.4648 1.02577 12.342L2.02177 9.355L2.02577 9.343L4.02577 3.342ZM3.19377 9H5.80577L4.49977 5.081L3.19377 9ZM11.4998 3C12.8778 3 13.9998 4.121 13.9998 5.5C13.9997 5.83054 13.9341 6.15779 13.8067 6.46281C13.6794 6.76783 13.4928 7.04456 13.2578 7.277C13.7778 7.51721 14.2182 7.90128 14.5269 8.38381C14.8356 8.86634 14.9997 9.42717 14.9998 10C14.9998 11.654 13.6538 13 11.9998 13H9.49977C9.36716 13 9.23998 12.9473 9.14621 12.8536C9.05245 12.7598 8.99977 12.6326 8.99977 12.5V3.5C8.99977 3.36739 9.05245 3.24021 9.14621 3.14645C9.23998 3.05268 9.36716 3 9.49977 3H11.4998ZM9.99977 8V12H11.9998C13.1028 12 13.9998 11.103 13.9998 10C13.9998 8.897 13.1028 8 11.9998 8H9.99977ZM9.99977 4V7H11.4998C12.3268 7 12.9998 6.327 12.9998 5.5C12.9998 4.673 12.3268 4 11.4998 4H9.99977Z" fill="#B0B0B0"/>
</svg>
