<svg width="20" height="20" viewBox="0 0 20 20" fill="none" xmlns="http://www.w3.org/2000/svg">
<path d="M13.3337 14.1003C13.0587 14.142 12.7837 14.167 12.5003 14.167C12.217 14.167 11.942 14.142 11.667 14.1003V11.1753L9.58366 13.242C9.16699 12.917 8.75033 12.5003 8.42532 12.0837L10.492 10.0003H7.56699C7.52533 9.72533 7.50033 9.45033 7.50033 9.16699C7.50033 8.88366 7.52533 8.60866 7.56699 8.33366H10.492L8.42532 6.25033C8.58366 6.04199 8.75033 5.83366 8.96699 5.63366C9.16699 5.41699 9.37533 5.25033 9.58366 5.09199L11.667 7.15866V4.23366C11.942 4.19199 12.217 4.16699 12.5003 4.16699C12.7837 4.16699 13.0587 4.19199 13.3337 4.23366V7.15866L15.417 5.09199C15.8337 5.41699 16.2503 5.83366 16.5753 6.25033L14.5087 8.33366H17.4337C17.4753 8.60866 17.5003 8.88366 17.5003 9.16699C17.5003 9.45033 17.4753 9.72533 17.4337 10.0003H14.5087L16.5753 12.0837C16.417 12.292 16.2503 12.5003 16.0337 12.7003C15.8337 12.917 15.6253 13.0837 15.417 13.242L13.3337 11.1753V14.1003ZM4.16699 15.8337C4.16699 15.3916 4.34259 14.9677 4.65515 14.6551C4.96771 14.3426 5.39163 14.167 5.83366 14.167C6.27569 14.167 6.69961 14.3426 7.01217 14.6551C7.32473 14.9677 7.50033 15.3916 7.50033 15.8337C7.50033 16.2757 7.32473 16.6996 7.01217 17.0122C6.69961 17.3247 6.27569 17.5003 5.83366 17.5003C5.39163 17.5003 4.96771 17.3247 4.65515 17.0122C4.34259 16.6996 4.16699 16.2757 4.16699 15.8337Z" fill="currentColor"/>
</svg>
