<svg width="16" height="16" viewBox="0 0 16 16" fill="none" xmlns="http://www.w3.org/2000/svg">
<g clip-path="url(#clip0_7089_683)">
<path d="M14.0011 13V10C14.0011 8.35 12.6511 7 11.0011 7H5.12109L4.12109 8H11.0011C12.1011 8 13.0011 8.9 13.0011 10V14C13.5511 14 14.0011 13.55 14.0011 13Z" fill="#B0B0B0"/>
<path fill-rule="evenodd" clip-rule="evenodd" d="M11 5.5V2.75C11 1.765 10.121 1.25 9.251 1.25C8.363 1.25 7.99 1.553 7.897 1.646C7.80134 1.74034 7.74634 1.86833 7.74372 2.00265C7.74111 2.13698 7.79109 2.26701 7.883 2.365C7.92714 2.41221 7.98031 2.45009 8.03936 2.47637C8.09841 2.50266 8.16213 2.51683 8.22675 2.51805C8.29137 2.51926 8.35558 2.50749 8.41557 2.48343C8.47556 2.45938 8.53012 2.42352 8.576 2.378C8.588 2.37 8.773 2.25 9.25 2.25C9.28 2.25 10 2.256 10 2.75V3.056C9.75176 3.01853 9.50105 2.99981 9.25 3C7.937 3 7.25 3.754 7.25 4.5C7.25 5.246 7.937 6 9.25 6C9.622 6 9.911 5.937 10.145 5.851C10.2147 5.92127 10.3037 5.96928 10.4007 5.98894C10.4977 6.0086 10.5983 5.99903 10.6899 5.96144C10.7814 5.92385 10.8598 5.85994 10.915 5.7778C10.9702 5.69565 10.9998 5.59897 11 5.5ZM9.251 4C9.623 4 9.857 4.038 10.001 4.074V4.811C9.908 4.885 9.698 5 9.251 5C8.602 5 8.251 4.742 8.251 4.5C8.251 4.258 8.602 4 9.251 4Z" fill="#B0B0B0"/>
<path d="M5.00195 13.0742C4.75606 13.0181 4.50407 12.9932 4.25195 13.0002C3.60295 13.0002 3.25195 13.2582 3.25195 13.5002C3.25195 13.7422 3.60295 14.0002 4.25195 14.0002C4.69895 14.0002 4.90895 13.8852 5.00195 13.8112V13.0742Z" fill="#B0B0B0"/>
<path fill-rule="evenodd" clip-rule="evenodd" d="M12 15V10C12 9.73478 11.8946 9.48043 11.7071 9.29289C11.5196 9.10536 11.2652 9 11 9H2C1.73478 9 1.48043 9.10536 1.29289 9.29289C1.10536 9.48043 1 9.73478 1 10V15C1 15.2652 1.10536 15.5196 1.29289 15.7071C1.48043 15.8946 1.73478 16 2 16H11C11.2652 16 11.5196 15.8946 11.7071 15.7071C11.8946 15.5196 12 15.2652 12 15ZM4.251 10.25C5.121 10.25 6 10.765 6 11.75V14.5C5.99978 14.599 5.9702 14.6957 5.91499 14.7778C5.85979 14.8599 5.78144 14.9239 5.68989 14.9614C5.59833 14.999 5.49768 15.0086 5.40068 14.9889C5.30368 14.9693 5.2147 14.9213 5.145 14.851C4.85771 14.9527 4.55476 15.0032 4.25 15C2.937 15 2.25 14.246 2.25 13.5C2.25 12.754 2.937 12 4.25 12C4.552 12 4.796 12.023 5 12.056V11.75C5 11.256 4.28 11.25 4.25 11.25C3.787 11.25 3.6 11.363 3.578 11.377L3.576 11.378C3.53012 11.4235 3.47557 11.4594 3.41557 11.4834C3.35558 11.5075 3.29137 11.5193 3.22675 11.518C3.16213 11.5168 3.09841 11.5027 3.03936 11.4764C2.98031 11.4501 2.92714 11.4122 2.883 11.365C2.79109 11.267 2.74111 11.137 2.74372 11.0027C2.74634 10.8683 2.80134 10.7403 2.897 10.646C2.99 10.553 3.363 10.25 4.251 10.25ZM8.33 11.611C8.10872 11.9021 7.99242 12.2594 8 12.625C8 13.013 8.117 13.373 8.33 13.639C8.699 14.101 9.31 13.982 9.539 13.778C9.58772 13.7341 9.64462 13.7002 9.70644 13.6782C9.76826 13.6563 9.8338 13.6467 9.89931 13.6501C9.96482 13.6535 10.029 13.6698 10.0883 13.698C10.1475 13.7262 10.2006 13.7658 10.2445 13.8145C10.2884 13.8632 10.3223 13.9201 10.3443 13.9819C10.3662 14.0438 10.3758 14.1093 10.3724 14.1748C10.369 14.2403 10.3527 14.3045 10.3245 14.3638C10.2963 14.423 10.2567 14.4761 10.208 14.52C9.86 14.834 9.442 15 9 15C8.445 15 7.929 14.739 7.549 14.264C7.18657 13.7951 6.99311 13.2176 7 12.625C7 12.011 7.195 11.429 7.549 10.986C8.233 10.134 9.422 10.02 10.209 10.73C10.261 10.773 10.3038 10.826 10.3348 10.886C10.3658 10.9459 10.3843 11.0116 10.3892 11.0789C10.3942 11.1462 10.3855 11.2138 10.3636 11.2776C10.3417 11.3414 10.3071 11.4002 10.2619 11.4503C10.2167 11.5004 10.1619 11.5409 10.1006 11.5692C10.0394 11.5976 9.97305 11.6132 9.90559 11.6153C9.83814 11.6173 9.77098 11.6056 9.70814 11.581C9.64531 11.5564 9.58812 11.5193 9.54 11.472C9.311 11.266 8.701 11.147 8.33 11.611ZM14 6C15.103 6 16 4.991 16 3.75C16 2.509 15.103 1.5 14 1.5C13.634 1.5 13.295 1.619 13 1.813V0.5C13 0.367392 12.9473 0.240215 12.8536 0.146447C12.7598 0.0526784 12.6326 0 12.5 0C12.3674 0 12.2402 0.0526784 12.1464 0.146447C12.0527 0.240215 12 0.367392 12 0.5V5.5C12 5.63261 12.0527 5.75979 12.1464 5.85355C12.2402 5.94732 12.3674 6 12.5 6C12.717 6 12.897 5.86 12.966 5.666C13.269 5.873 13.62 6 14 6ZM14 2.5C14.552 2.5 15 3.061 15 3.75C15 4.439 14.552 5 14 5C13.448 5 13 4.439 13 3.75C13 3.061 13.448 2.5 14 2.5Z" fill="#B0B0B0"/>
<path d="M2.00019 4.5C2.00019 3.673 2.67319 3 3.50019 3H5.50219C5.6348 3 5.76198 3.05268 5.85575 3.14645C5.94951 3.24021 6.00219 3.36739 6.00219 3.5C6.00219 3.63261 5.94951 3.75979 5.85575 3.85355C5.76198 3.94732 5.6348 4 5.50219 4H3.50219C3.36958 4 3.24241 4.05268 3.14864 4.14645C3.05487 4.24021 3.00219 4.36739 3.00219 4.5V6.293L4.14819 5.147C4.24249 5.05592 4.36879 5.00552 4.49989 5.00666C4.63099 5.0078 4.7564 5.06039 4.8491 5.15309C4.94181 5.24579 4.99439 5.3712 4.99553 5.5023C4.99667 5.6334 4.94627 5.7597 4.85519 5.854L2.85519 7.854C2.80875 7.90056 2.75357 7.93751 2.69283 7.96271C2.63208 7.98792 2.56696 8.00089 2.50119 8.00089C2.43542 8.00089 2.3703 7.98792 2.30956 7.96271C2.24881 7.93751 2.19364 7.90056 2.14719 7.854L0.147192 5.854C0.0561128 5.7597 0.00571563 5.6334 0.00685484 5.5023C0.00799405 5.3712 0.0605785 5.24579 0.153283 5.15309C0.245987 5.06039 0.371393 5.0078 0.502491 5.00666C0.63359 5.00552 0.759891 5.05592 0.854192 5.147L2.00019 6.293V4.5Z" fill="#B0B0B0"/>
</g>
<defs>
<clipPath id="clip0_7089_683">
<rect width="16" height="16" fill="white"/>
</clipPath>
</defs>
</svg>
